<svg width="56" height="56" viewBox="0 0 56 56" fill="none" xmlns="http://www.w3.org/2000/svg">
<path d="M0 8C0 3.58172 3.58172 0 8 0H48C52.4183 0 56 3.58172 56 8V48C56 52.4183 52.4183 56 48 56H8C3.58172 56 0 52.4183 0 48V8Z" fill="#F6E7FF"/>
<path d="M24.8749 16.125C24.8749 15.2962 25.2042 14.5013 25.7902 13.9153C26.3763 13.3292 27.1711 13 27.9999 13C28.8287 13 29.6236 13.3292 30.2096 13.9153C30.7957 14.5013 31.1249 15.2962 31.1249 16.125C31.1249 16.9538 30.7957 17.7487 30.2096 18.3347C29.6236 18.9208 28.8287 19.25 27.9999 19.25C27.1711 19.25 26.3763 18.9208 25.7902 18.3347C25.2042 17.7487 24.8749 16.9538 24.8749 16.125ZM27.9999 10.5C27.1515 10.5 26.3142 10.6919 25.5505 11.0614C24.7868 11.4308 24.1165 11.9682 23.5899 12.6333C23.0633 13.2984 22.694 14.0741 22.5095 14.9021C22.3251 15.7302 22.3304 16.5893 22.5249 17.415L18.4949 15.79C17.5171 15.3962 16.4234 15.4043 15.4515 15.8125C14.4797 16.2207 13.7082 16.9961 13.3049 17.97C13.1053 18.4523 13.0032 18.9694 13.0047 19.4914C13.0061 20.0134 13.1109 20.5299 13.3132 21.0111C13.5154 21.4923 13.8111 21.9286 14.183 22.2949C14.5549 22.6612 14.9957 22.9501 15.4799 23.145L20.4999 25.1725V31.1325L15.9674 39.6575C15.722 40.1188 15.5699 40.6239 15.5196 41.1439C15.4694 41.664 15.5222 42.1889 15.6748 42.6886C15.8274 43.1883 16.077 43.653 16.4092 44.0562C16.7415 44.4595 17.1499 44.7933 17.6112 45.0388C18.5427 45.5344 19.633 45.6396 20.6422 45.3314C21.6514 45.0231 22.4968 44.3266 22.9924 43.395L27.9999 33.975L33.0099 43.395C33.5052 44.3266 34.3503 45.0232 35.3592 45.3317C36.3682 45.6402 37.4583 45.5353 38.3899 45.04C39.3215 44.5447 40.0181 43.6996 40.3266 42.6907C40.6351 41.6817 40.5302 40.5916 40.0349 39.66L35.4999 31.13V25.1725L40.5199 23.145C41.0041 22.9501 41.445 22.6612 41.8169 22.2949C42.1888 21.9286 42.4844 21.4923 42.6866 21.0111C42.8889 20.5299 42.9937 20.0134 42.9952 19.4914C42.9966 18.9694 42.8945 18.4523 42.6949 17.97C42.2921 16.9956 41.5208 16.2197 40.5489 15.811C39.577 15.4023 38.483 15.3938 37.5049 15.7875L33.4774 17.415C33.672 16.589 33.6772 15.7298 33.4927 14.9015C33.3081 14.0733 32.9385 13.2975 32.4116 12.6323C31.8847 11.9671 31.2142 11.4298 30.4501 11.0605C29.6861 10.6913 28.8485 10.4996 27.9999 10.5ZM15.6174 18.9225C15.7687 18.5588 16.0569 18.2692 16.4199 18.1163C16.7829 17.9633 17.1915 17.9593 17.5574 18.105L26.1274 21.5675C27.3286 22.0527 28.6712 22.0527 29.8724 21.5675L38.4424 18.105C38.8083 17.9593 39.2169 17.9633 39.5799 18.1163C39.9429 18.2692 40.2311 18.5588 40.3824 18.9225C40.4565 19.0999 40.4945 19.2903 40.4943 19.4826C40.4941 19.6749 40.4556 19.8652 40.3812 20.0425C40.3068 20.2198 40.1978 20.3805 40.0607 20.5152C39.9235 20.65 39.761 20.7561 39.5824 20.8275L34.5624 22.8525C34.1 23.0396 33.7041 23.3607 33.4256 23.7746C33.1472 24.1885 32.9989 24.6762 32.9999 25.175V31.1325C32.9997 31.5422 33.1001 31.9457 33.2924 32.3075L37.8274 40.835C37.9914 41.179 38.0163 41.573 37.8971 41.935C37.7778 42.297 37.5235 42.5989 37.1871 42.7781C36.8507 42.9572 36.4582 42.9997 36.0913 42.8967C35.7244 42.7937 35.4114 42.5531 35.2174 42.225L30.2074 32.8C29.9945 32.3994 29.6765 32.0643 29.2876 31.8306C28.8987 31.5969 28.4536 31.4734 27.9999 31.4734C27.5462 31.4734 27.1011 31.5969 26.7122 31.8306C26.3233 32.0643 26.0054 32.3994 25.7924 32.8L20.7849 42.2175C20.6938 42.3889 20.5698 42.5406 20.4201 42.6641C20.2703 42.7876 20.0977 42.8803 19.9121 42.9371C19.7265 42.9938 19.5316 43.0135 19.3384 42.9949C19.1452 42.9763 18.9575 42.9199 18.7862 42.8288C18.6148 42.7376 18.463 42.6137 18.3396 42.4639C18.2161 42.3142 18.1233 42.1416 18.0666 41.956C18.0098 41.7704 17.9902 41.5754 18.0088 41.3822C18.0273 41.189 18.0838 41.0014 18.1749 40.83L22.7074 32.305C22.8993 31.944 22.9998 31.5414 22.9999 31.1325V25.1725C22.9999 24.6745 22.8512 24.1879 22.5728 23.775C22.2944 23.3621 21.899 23.0417 21.4374 22.855L16.4174 20.825C16.2389 20.7536 16.0763 20.6475 15.9392 20.5127C15.802 20.378 15.6931 20.2173 15.6186 20.04C15.5442 19.8627 15.5057 19.6724 15.5055 19.4801C15.5053 19.2878 15.5433 19.0999 15.6174 18.9225Z" fill="#A729F5"/>
</svg>
